<svg width="202" height="35" viewBox="0 0 202 35" fill="none" xmlns="http://www.w3.org/2000/svg">
<mask id="mask0_2716_452" style="mask-type:alpha" maskUnits="userSpaceOnUse" x="0" y="0" width="52" height="35">
<path d="M31.0128 21.8485C31.3595 22.1951 31.9216 22.1951 32.2683 21.8485L43.5639 10.5528C41.01 4.3593 34.913 0 27.7977 0C22.6867 0 18.101 2.24937 14.9765 5.81215L23.0292 13.8649L24.3881 12.506C23.8214 11.3467 24.0199 9.90785 24.9834 8.94435C26.1968 7.73092 28.1641 7.73092 29.3775 8.94435C30.591 10.1578 30.591 12.1251 29.3775 13.3385C28.4404 14.2756 27.0536 14.489 25.9117 13.9786L24.5273 15.363L31.0128 21.8485Z" fill="#F44336"/>
<path d="M5.47601 31.3749C2.15141 28.8846 0 24.9137 0 20.4402C0 13.1312 5.74309 7.16356 12.9627 6.80379L20.8772 14.7183C21.2239 15.065 21.2239 15.627 20.8772 15.9737L15.2035 21.6475L13.94 20.384C14.478 19.2332 14.2719 17.8207 13.3217 16.8705C12.1083 15.6571 10.141 15.6571 8.92757 16.8705C7.71416 18.0839 7.71416 20.0513 8.92757 21.2647C9.87807 22.2152 11.2913 22.4211 12.4422 21.8825L13.7054 23.1456L5.47601 31.3749Z" fill="#00B0FF"/>
<path d="M40.2524 34.0937H13.1916V34.086C11.0788 34.0158 9.08759 33.4655 7.32351 32.5408L22.3838 17.4805C22.7305 17.1338 23.2926 17.1338 23.6393 17.4805L30.1383 23.9797L28.7235 25.3944C27.5717 24.8532 26.1561 25.0585 25.2044 26.0102C23.991 27.2236 23.991 29.1909 25.2044 30.4043C26.4178 31.6177 28.3852 31.6177 29.5986 30.4043C30.5476 29.4553 30.7543 28.0452 30.219 26.8952L31.6365 25.4777L40.2524 34.0937Z" fill="#00C853"/>
<path d="M44.3154 12.8163C44.3162 12.8195 44.317 12.8225 44.3178 12.8256C48.6977 14.2382 51.8661 18.3479 51.8661 23.1977C51.8661 28.5013 48.0768 32.92 43.0578 33.8939L33.7756 24.6117C33.4289 24.265 33.4289 23.7029 33.7756 23.3562L37.7577 19.3741L39.3673 20.9838C38.8518 22.1274 39.0638 23.5191 40.0034 24.4587C41.2168 25.6721 43.1843 25.6721 44.3974 24.4587C45.6109 23.2452 45.6109 21.2779 44.3974 20.0645C43.4365 19.1034 42.0024 18.9036 40.8447 19.4649L39.2558 17.876L44.3154 12.8163Z" fill="#FFD600"/>
</mask>
<g mask="url(#mask0_2716_452)">
<ellipse cx="26.3784" cy="18.4076" rx="42.3784" ry="20.4513" transform="rotate(-180 26.3784 18.4076)" fill="url(#paint0_linear_2716_452)"/>
</g>
<path d="M103.72 11.9712C104.829 11.9712 105.828 12.2453 106.719 12.7925C107.625 13.3396 108.335 14.1212 108.851 15.1372C109.382 16.1379 109.647 17.3033 109.647 18.6323C109.647 19.9612 109.382 21.1415 108.851 22.1733C108.335 23.1896 107.625 23.9796 106.719 24.5425C105.828 25.1053 104.829 25.3862 103.72 25.3862C102.767 25.3862 101.924 25.1911 101.189 24.8003C100.471 24.4094 99.8846 23.9169 99.4316 23.3228V31.3677H96.1514V12.1821H99.4316V14.0591C99.8534 13.4649 100.432 12.9724 101.166 12.5815C101.916 12.1751 102.767 11.9712 103.72 11.9712ZM124.41 11.9712C125.66 11.9712 126.792 12.253 127.808 12.8159C128.823 13.3631 129.619 14.1446 130.197 15.1606C130.791 16.1769 131.088 17.3502 131.088 18.6792C131.088 20.0081 130.783 21.1805 130.174 22.1968C129.58 23.2131 128.768 24.003 127.737 24.5659C126.722 25.1131 125.582 25.3862 124.316 25.3862C123.067 25.3862 121.942 25.1131 120.942 24.5659C119.943 24.003 119.154 23.213 118.576 22.1968C118.014 21.1806 117.732 20.0081 117.732 18.6792C117.732 17.3502 118.022 16.1769 118.6 15.1606C119.193 14.1446 119.998 13.3631 121.013 12.8159C122.028 12.2531 123.161 11.9712 124.41 11.9712ZM163.856 11.9712C165.106 11.9712 166.239 12.2531 167.254 12.8159C168.269 13.3631 169.067 14.1444 169.645 15.1606C170.238 16.1769 170.534 17.3502 170.534 18.6792C170.534 20.008 170.23 21.1806 169.621 22.1968C169.028 23.2131 168.215 24.003 167.184 24.5659C166.168 25.113 165.028 25.3862 163.763 25.3862C162.513 25.3862 161.389 25.1129 160.39 24.5659C159.39 24.003 158.6 23.2131 158.022 22.1968C157.46 21.1806 157.18 20.008 157.18 18.6792C157.18 17.3502 157.468 16.1769 158.046 15.1606C158.639 14.1446 159.444 13.3631 160.459 12.8159C161.474 12.2531 162.607 11.9712 163.856 11.9712ZM201.107 25.1753H197.78V23.2524C197.374 23.8935 196.803 24.4094 196.069 24.8003C195.335 25.1911 194.484 25.3862 193.516 25.3862C192.422 25.3862 191.423 25.1053 190.517 24.5425C189.611 23.9796 188.892 23.1896 188.361 22.1733C187.846 21.1415 187.588 19.9612 187.588 18.6323C187.588 17.3189 187.846 16.1535 188.361 15.1372C188.892 14.1212 189.611 13.3396 190.517 12.7925C191.423 12.2453 192.43 11.9712 193.539 11.9712C194.382 11.9712 195.187 12.1595 195.952 12.5347C196.718 12.8943 197.327 13.379 197.78 13.9888V7.81982H201.107V25.1753ZM83.8242 19.3354C83.8242 20.3674 84.0822 21.1652 84.5977 21.728C85.1131 22.2751 85.8158 22.5483 86.7061 22.5483C87.6119 22.5483 88.3224 22.2751 88.8379 21.728C89.3534 21.1652 89.6113 20.3674 89.6113 19.3354V12.1821H92.915V25.1753H89.6113V23.5337C89.1897 24.0965 88.6354 24.5423 87.9482 24.8706C87.2766 25.1833 86.5417 25.3394 85.7451 25.3394C84.7299 25.3393 83.8317 25.1287 83.0508 24.7065C82.2699 24.2688 81.6531 23.6356 81.2002 22.8071C80.7629 21.9629 80.544 20.962 80.5439 19.8052V12.1821H83.8242V19.3354ZM176.104 19.3354C176.104 20.3674 176.362 21.1652 176.877 21.728C177.392 22.2752 178.095 22.5482 178.985 22.5483C179.891 22.5483 180.603 22.2753 181.118 21.728C181.634 21.1652 181.892 20.3674 181.892 19.3354V12.1821H185.195V25.1753H181.892V23.5337C181.47 24.0966 180.915 24.5423 180.228 24.8706C179.556 25.1833 178.822 25.3393 178.025 25.3394C177.01 25.3394 176.112 25.1286 175.331 24.7065C174.55 24.2688 173.932 23.6357 173.479 22.8071C173.042 21.9629 172.823 20.962 172.823 19.8052V12.1821H176.104V19.3354ZM140.991 8.59424C142.819 8.59424 144.42 9.06334 145.795 10.0015C147.169 10.9395 148.13 12.237 148.677 13.894H144.904C144.529 13.1125 143.999 12.5261 143.312 12.1353C142.64 11.7444 141.858 11.5493 140.968 11.5493C140.015 11.5494 139.164 11.7756 138.414 12.229C137.68 12.6668 137.102 13.2929 136.681 14.106C136.275 14.919 136.071 15.8729 136.071 16.9673C136.071 18.046 136.275 19 136.681 19.8286C137.102 20.6414 137.68 21.2747 138.414 21.728C139.164 22.1658 140.015 22.3842 140.968 22.3843C141.858 22.3843 142.64 22.1892 143.312 21.7983C143.999 21.3919 144.529 20.7977 144.904 20.0161H148.677C148.13 21.6889 147.169 22.9941 145.795 23.9321C144.436 24.8546 142.834 25.3159 140.991 25.3159C139.43 25.3159 138.016 24.9646 136.751 24.2612C135.502 23.5421 134.51 22.549 133.775 21.2827C133.057 20.0164 132.697 18.5776 132.697 16.9673C132.697 15.3569 133.057 13.9183 133.775 12.6519C134.51 11.3698 135.501 10.3769 136.751 9.67334C138.016 8.95418 139.429 8.5943 140.991 8.59424ZM69.583 8.80518C71.3012 8.80518 72.809 9.14164 74.1055 9.81396C75.4174 10.4863 76.4251 11.448 77.1279 12.6987C77.8463 13.9339 78.2051 15.3726 78.2051 17.0142C78.205 18.6557 77.8464 20.0945 77.1279 21.3296C76.4251 22.5489 75.4173 23.4942 74.1055 24.1665C72.809 24.8388 71.3012 25.1753 69.583 25.1753H63.8662V8.80518H69.583ZM115.312 25.1753H112.031V7.81982H115.312V25.1753ZM154.759 25.1753H151.479V7.81982H154.759V25.1753ZM124.363 14.8325C123.426 14.8325 122.637 15.169 121.997 15.8413C121.372 16.498 121.06 17.444 121.06 18.6792C121.06 19.9143 121.364 20.8682 121.974 21.5405C122.598 22.1971 123.379 22.5249 124.316 22.5249C124.91 22.5249 125.465 22.3845 125.98 22.103C126.511 21.806 126.933 21.3679 127.245 20.7896C127.557 20.2111 127.714 19.5077 127.714 18.6792C127.714 17.444 127.386 16.498 126.729 15.8413C126.089 15.1691 125.3 14.8325 124.363 14.8325ZM163.81 14.8325C162.873 14.8326 162.084 15.1691 161.443 15.8413C160.819 16.498 160.506 17.4441 160.506 18.6792C160.506 19.9143 160.811 20.8682 161.42 21.5405C162.045 22.1971 162.826 22.5248 163.763 22.5249C164.356 22.5249 164.911 22.3845 165.427 22.103C165.958 21.806 166.379 21.368 166.691 20.7896C167.004 20.2111 167.16 19.5078 167.16 18.6792C167.16 17.4441 166.833 16.498 166.177 15.8413C165.536 15.169 164.747 14.8325 163.81 14.8325ZM102.853 14.856C102.259 14.856 101.697 15.013 101.166 15.3257C100.651 15.6227 100.228 16.0598 99.9004 16.6382C99.588 17.2167 99.4316 17.8974 99.4316 18.6792C99.4317 19.4608 99.5881 20.1408 99.9004 20.7192C100.228 21.2977 100.651 21.7434 101.166 22.0562C101.697 22.3531 102.259 22.5015 102.853 22.5015C103.462 22.5015 104.025 22.3454 104.54 22.0327C105.071 21.72 105.492 21.2742 105.805 20.6958C106.133 20.1174 106.297 19.4296 106.297 18.6323C106.297 17.8506 106.133 17.1776 105.805 16.6147C105.492 16.0366 105.071 15.5992 104.54 15.3022C104.025 15.0052 103.462 14.856 102.853 14.856ZM194.359 14.856C193.75 14.856 193.187 15.0052 192.672 15.3022C192.157 15.5992 191.735 16.0366 191.407 16.6147C191.095 17.1776 190.938 17.8506 190.938 18.6323C190.938 19.414 191.095 20.1017 191.407 20.6958C191.735 21.2742 192.157 21.72 192.672 22.0327C193.203 22.3454 193.766 22.5015 194.359 22.5015C194.968 22.5014 195.538 22.3531 196.069 22.0562C196.6 21.7434 197.023 21.3056 197.335 20.7427C197.647 20.1642 197.804 19.4764 197.804 18.6792C197.804 17.8818 197.647 17.2011 197.335 16.6382C197.023 16.0598 196.6 15.6227 196.069 15.3257C195.538 15.013 194.969 14.856 194.359 14.856ZM67.1465 22.3843H69.4658C71.184 22.3843 72.512 21.9152 73.4492 20.9771C74.3862 20.039 74.8554 18.7181 74.8555 17.0142C74.8555 15.3099 74.3864 13.9806 73.4492 13.0269C72.512 12.0575 71.184 11.5728 69.4658 11.5728H67.1465V22.3843Z" fill="white"/>
<defs>
<linearGradient id="paint0_linear_2716_452" x1="-18.7409" y1="-10.688" x2="44.6019" y2="36.2261" gradientUnits="userSpaceOnUse">
<stop stop-color="#C8E6C9"/>
<stop offset="0.33" stop-color="#FFE082"/>
<stop offset="0.68" stop-color="#F48FB1"/>
<stop offset="1" stop-color="#B388FF"/>
</linearGradient>
</defs>
</svg>
